<?xml version="1.0" encoding="utf-8"?>
<!-- Generator: Adobe Illustrator 16.0.0, SVG Export Plug-In . SVG Version: 6.00 Build 0)  -->
<!DOCTYPE svg PUBLIC "-//W3C//DTD SVG 1.1//EN" "http://www.w3.org/Graphics/SVG/1.1/DTD/svg11.dtd">
<svg version="1.1" id="Livello_1" xmlns="http://www.w3.org/2000/svg" xmlns:xlink="http://www.w3.org/1999/xlink" x="0px" y="0px"
	 width="64px" height="64px" viewBox="0 0 64 64" enable-background="new 0 0 64 64" xml:space="preserve">
<g>
	<defs>
		<rect id="SVGID_1_" width="64" height="64"/>
	</defs>
	<clipPath id="SVGID_2_">
		<use xlink:href="#SVGID_1_"  overflow="visible"/>
	</clipPath>
	<g clip-path="url(#SVGID_2_)">
		<g>
			<path fill="#FFFFFF" d="M48.39,20.453c1.235-1.235,3.235-1.235,4.471,0l0,0c1.233,1.233,1.234,3.235,0,4.47l0,0L34.235,43.549
				c-1.233,1.234-3.235,1.233-4.469-0.001l0,0c-1.234-1.234-1.234-3.235-0.001-4.47l0,0L48.39,20.453L48.39,20.453z"/>
		</g>
		<g>
			<path fill="#FFFFFF" d="M11.14,24.923c-1.234-1.234-1.234-3.236,0.001-4.471l0,0c1.234-1.235,3.235-1.234,4.47,0.001l0,0
				l18.625,18.624c1.234,1.235,1.236,3.236,0.001,4.471l0,0c-1.234,1.235-3.236,1.235-4.471,0l0,0L11.14,24.923L11.14,24.923z"/>
		</g>
	</g>
</g>
</svg>
