<?xml version="1.0" encoding="utf-8"?>
<!-- Generator: Adobe Illustrator 22.1.0, SVG Export Plug-In . SVG Version: 6.00 Build 0)  -->
<svg version="1.1" id="Livello_1" xmlns="http://www.w3.org/2000/svg" xmlns:xlink="http://www.w3.org/1999/xlink" x="0px" y="0px"
	 width="438.8px" height="323.9px" viewBox="0 0 438.8 323.9" style="enable-background:new 0 0 438.8 323.9;" xml:space="preserve"
	>
<style type="text/css">
	.st0{fill:#202945;}
	.st1{fill:#89D8E8;}
</style>
<path class="st0" d="M20.7,265.1h2.9l-4.4,17.7h0.1c2.1-3,6.2-6,11.5-6c5.6,0,9.3,2.7,7.7,9.2l-6.3,25.8h-2.9l6-24.6
	c1.5-6.1-1-8.2-5.9-8.2c-6,0-10.5,4.9-12,10.9l-5.3,21.9H9.3L20.7,265.1z"/>
<path class="st0" d="M49.6,277.6h2.9l-8.4,34.2h-2.9L49.6,277.6z M52.7,265.1h2.9l-1.7,6.7h-2.9L52.7,265.1z"/>
<path class="st0" d="M77.9,309.9c-2,8.4-6.2,13.9-16,13.9c-10,0-9-6.7-8.6-8.5h2.9c-0.9,3.5,1,6.3,6.5,6.3c6.7,0,10.3-3.3,12-10.5
	l1.6-6.3h-0.2c-1.9,3-5.1,6.9-12,6.9c-9.3,0-9.9-7.9-7.6-17.3c2.3-9.4,6.4-17.7,16.8-17.7c5.1,0,7.7,2.5,8.2,6.5h0.2l1.4-5.7h2.9
	L77.9,309.9z M65.4,309.6c7.1,0,11.2-6.3,13.5-15.6c2.4-10,0.5-15-5.6-15c-6.3,0-10.8,3.9-13.7,15.5C57.5,303.3,58,309.6,65.4,309.6
	"/>
<path class="st0" d="M97.7,265.1h2.9l-4.4,17.7h0.1c2.1-3,6.2-6,11.5-6c5.6,0,9.3,2.7,7.7,9.2l-6.3,25.8h-2.9l6-24.6
	c1.5-6.1-1-8.2-5.9-8.2c-6,0-10.5,4.9-12,10.9l-5.3,21.9h-2.9L97.7,265.1z"/>
<path class="st0" d="M142.2,277.6h5.3l2.5-10.1h2.9l-2.5,10.1h6.5l-0.5,2.2h-6.5l-6.5,26.4c-0.8,3.3,0.9,3.8,2.6,3.8
	c1.2,0,2.3-0.1,3.6-0.4l-0.5,2.2c-1.5,0.3-3,0.4-4.1,0.4c-4.1,0-5.3-2-4.4-5.8l6.5-26.6h-5.3L142.2,277.6z"/>
<path class="st0" d="M159.9,294.5c-1.4,5.5-3.8,15.8,5.4,15.8c8.3,0,11.4-7.2,12-9.8h2.9c-1.3,5.2-6.2,12-15.1,12
	c-10.2,0-10.9-7.2-8.1-18.9c2.6-10.5,8.4-17,17.3-17c9.3,0,10.6,6.7,7.9,17.7H159.9z M179.5,292.3c1.6-6.2,2.1-13.3-6-13.3
	c-8.7,0-12,8.8-13.1,13.3H179.5z"/>
<path class="st0" d="M211.8,300.6c-0.8,3.2-5,12-15.1,12c-10.2,0-10.8-7.8-8.3-18.1c2.8-11.3,8.4-17.7,17.6-17.7
	c9.6,0,9.4,8.1,8.8,10.6h-3.2c0.5-2.1,0.5-8.4-6.3-8.4c-7.3,0-11.4,5.8-13.8,15.6c-2.6,10.7-1.1,15.7,6.2,15.7
	c7.2,0,10.3-7.2,10.9-9.8H211.8z"/>
<path class="st0" d="M227,265.1h2.9l-4.4,17.7h0.1c2.1-3,6.2-6,11.5-6c5.6,0,9.3,2.7,7.7,9.2l-6.3,25.8h-2.9l6-24.6
	c1.5-6.1-1-8.2-5.9-8.2c-6,0-10.5,4.9-12,10.9l-5.3,21.9h-2.9L227,265.1z"/>
<path class="st0" d="M255.6,277.6h2.9l-1.3,5.2h0.1c2.1-3,6.2-6,11.5-6c5.6,0,9.3,2.7,7.7,9.2l-6.3,25.8h-2.9l6-24.6
	c1.5-6.1-1-8.2-5.9-8.2c-6,0-10.5,4.9-12,10.9l-5.3,21.9h-2.9L255.6,277.6z"/>
<path class="st0" d="M290.6,312.6c-10.4,0-10.9-8.1-8.5-17.9c2.4-9.8,6.9-17.9,17.8-17.9c10.4,0,11,8.1,8.6,17.9
	C306.1,304.5,301.5,312.6,290.6,312.6 M299.1,279c-7.5,0-11.4,5.8-13.8,15.7c-2.3,9.8-1.3,15.6,6.2,15.6c7.5,0,11.4-5.8,13.8-15.6
	C307.7,284.8,306.6,279,299.1,279"/>
<polygon class="st0" points="323.7,265.1 326.6,265.1 315.2,311.8 312.3,311.8 "/>
<path class="st0" d="M335.9,312.6c-10.4,0-10.9-8.1-8.5-17.9c2.4-9.8,6.9-17.9,17.8-17.9c10.4,0,11,8.1,8.6,17.9
	C351.4,304.5,346.8,312.6,335.9,312.6 M344.4,279c-7.5,0-11.4,5.8-13.8,15.7c-2.3,9.8-1.3,15.6,6.2,15.6c7.5,0,11.4-5.8,13.8-15.6
	C353,284.8,351.9,279,344.4,279"/>
<path class="st0" d="M382,309.9c-2,8.4-6.2,13.9-16,13.9c-10,0-9-6.7-8.6-8.5h2.9c-0.9,3.5,1,6.3,6.5,6.3c6.7,0,10.3-3.3,12-10.5
	l1.6-6.3h-0.2c-1.9,3-5.1,6.9-12,6.9c-9.3,0-9.9-7.9-7.6-17.3c2.3-9.4,6.4-17.7,16.8-17.7c5.1,0,7.7,2.5,8.2,6.5h0.1l1.4-5.7h2.9
	L382,309.9z M369.6,309.6c7.1,0,11.2-6.3,13.5-15.6c2.4-10,0.5-15-5.6-15c-6.3,0-10.8,3.9-13.7,15.5
	C361.6,303.3,362.1,309.6,369.6,309.6"/>
<path class="st0" d="M417.6,277.6h3.2l-21.8,39.3c-2.6,4.7-5.6,6.4-10.2,6.4c-1,0-2-0.1-2.9-0.1l0.5-2.2c1.1,0.1,1.6,0.1,2.5,0.1
	c3.7,0,5.4-0.9,7.9-5.4l2.1-3.6l-3.2-34.6h3.2l2.4,30.7h0.2L417.6,277.6z"/>
<path class="st0" d="M0,255.5c0,0,1.1-5.3,4.3-14.3c1.6-4.4,3.6-9.9,6.4-15.9c2.6-6.1,6-12.8,9.7-20c4-7.1,8.1-14.9,13.4-22.7
	c2.6-3.9,5-8.1,7.9-12c2.8-4,5.8-8.1,8.8-12.2c2.9-4.2,6.2-8.2,9.5-12.3c3.3-4.1,6.6-8.2,10.1-12.3c7.2-7.9,14.4-16.1,22-23.8
	c3.9-3.8,7.8-7.6,11.6-11.4c3.8-3.8,7.7-7.5,11.8-11c4-3.5,8-7,12-10.4c4-3.4,7.8-6.9,11.9-9.8c8-6.2,16-12,23.4-17.5
	c7.6-5.3,15.1-10,21.9-14.4c3.4-2.2,6.7-4.3,9.8-6.3c3.1-1.9,6.3-3.5,9.1-5.2c5.7-3.2,10.8-5.9,15-8.1c8.3-4.4,13.2-6.7,13.2-6.7
	s-4,3.7-11.2,9.7c-3.6,3-7.9,6.7-13,10.8c-5.1,4-10.6,8.9-16.7,14.1c-6,5.3-12.7,10.8-19.7,16.7c-6.8,6.1-13.9,12.6-21.4,19.2
	c-7.5,6.6-14.7,13.9-22.4,20.9c-3.9,3.5-7.5,7.3-11.3,11c-3.7,3.7-7.5,7.4-11.2,11.2c-3.9,3.6-7.3,7.6-11,11.4
	c-3.6,3.8-7.2,7.6-10.8,11.4c-6.8,7.9-13.8,15.3-20.2,22.9c-6.3,7.6-12.7,14.8-18.2,22.1c-5.7,7.1-10.7,14-15.6,20.4
	c-2.4,3.2-4.4,6.4-6.6,9.3c-2.2,2.9-4.1,5.8-5.9,8.5c-3.6,5.4-6.7,10.1-9.2,14.1c-2.4,4-4.4,7.1-5.6,9.3C0.7,254.3,0,255.5,0,255.5"
	/>
<path class="st0" d="M176.3,246.3c0,0,0.4-1.3,1.2-3.8c0.9-2.5,2-6.1,3.9-10.6c1.8-4.5,4.1-10,7-16.1c2.9-6.1,6.4-13,10.4-20.3
	c4-7.3,8.7-15.1,13.9-23.2c5.3-8,11-16.4,17.3-24.7c6.3-8.4,13.1-16.8,20.3-25.1c7.2-8.3,14.8-16.5,22.8-24.4c3.9-4,8-7.8,12.1-11.6
	c4-3.9,8.2-7.5,12.4-11.1c4.1-3.7,8.4-7.1,12.5-10.5c4.1-3.5,8.4-6.6,12.6-9.8c4.1-3.2,8.4-6.2,12.5-9.1c4.1-2.9,8.2-5.7,12.2-8.3
	c8-5.3,15.8-9.8,23-14.1c7.4-4,14-7.7,20.2-10.6c6.1-2.9,11.4-5.5,15.9-7.3c4.5-1.9,8-3.3,10.4-4.3c2.4-0.9,3.7-1.4,3.7-1.4
	s-1.1,0.9-3.2,2.5c-2.1,1.6-5.1,3.9-9,6.8c-2,1.4-4.1,3-6.4,4.8c-2.3,1.8-4.8,3.7-7.5,5.7c-1.3,1-2.7,2-4.1,3.1
	c-1.4,1.1-2.8,2.2-4.3,3.4c-3,2.3-6.1,4.7-9.3,7.2c-6.4,5.2-13.4,10.6-20.5,16.6c-1.8,1.5-3.6,3-5.5,4.5c-1.9,1.5-3.7,3.1-5.5,4.7
	c-3.7,3.2-7.6,6.3-11.4,9.8c-3.8,3.4-7.8,6.7-11.6,10.3c-1.9,1.8-3.9,3.5-5.8,5.3c-2,1.7-3.9,3.5-5.9,5.4
	c-3.9,3.7-7.8,7.3-11.7,11.1c-3.9,3.7-7.8,7.5-11.6,11.4l-5.8,5.7c-1.9,1.9-3.8,3.9-5.6,5.8c-3.8,3.9-7.4,7.8-11.1,11.6
	c-3.6,3.9-7.2,7.8-10.7,11.7c-3.4,3.9-6.9,7.7-10.3,11.6c-6.7,7.6-13,15.2-19,22.4c-5.9,7.2-11.5,14.1-16.4,20.6
	c-5,6.5-9.6,12.5-13.5,17.8c-4,5.4-7.4,10.1-10.2,14c-2.7,4-5,7.1-6.4,9.2C177.1,245.1,176.3,246.3,176.3,246.3"/>
<path class="st1" d="M9.4,250.9c0,0,0.9-1.7,2.8-4.7c1.9-3,4.7-7.5,8.6-12.9c3.9-5.4,8.8-12,14.8-19.1c6-7.2,13-15.1,21.2-23.2
	c8.1-8.2,17.3-16.7,27.4-25.3c10.2-8.4,21.2-17.2,33.2-25.2c11.9-8.3,24.7-16,38.1-23.4c13.4-7.2,27.3-14.1,41.7-19.9
	c7.1-3.1,14.4-5.7,21.6-8.4c7.2-2.8,14.6-4.8,21.9-7.2c14.6-4.4,29.2-7.9,43.4-10.7c14.2-2.7,28.1-4.7,41.3-5.9
	c3.3-0.3,6.5-0.7,9.7-1c3.2-0.2,6.4-0.4,9.5-0.5c6.2-0.2,12.2-0.6,18-0.7c11.5,0.1,22.1-0.1,31.4,0.7c9.3,0.6,17.4,1,24.1,2
	c13.3,1.7,20.8,2.8,20.8,2.8s-7.6,0.6-20.9,1.2c-6.6,0.1-14.7,1.1-23.8,1.7c-4.6,0.3-9.5,0.7-14.6,1.4c-5.1,0.5-10.5,1.1-16.1,1.7
	c-5.6,0.6-11.4,1.7-17.4,2.5c-3,0.4-6,0.9-9.1,1.3c-3.1,0.6-6.2,1.1-9.4,1.7c-6.3,1.2-12.8,2.2-19.4,3.8c-6.5,1.6-13.4,2.7-20.1,4.6
	c-6.7,1.9-13.7,3.3-20.6,5.5c-3.4,1-6.9,2.1-10.4,3.1c-3.5,1-7,2-10.4,3.3c-6.9,2.4-14,4.6-20.9,7.3l-10.4,3.9
	c-3.5,1.3-6.9,2.9-10.3,4.3c-3.4,1.4-6.9,2.8-10.3,4.3l-10.1,4.6c-6.8,3-13.3,6.5-19.9,9.6c-6.5,3.4-12.9,6.8-19.2,10.3
	c-6.2,3.6-12.4,7.1-18.3,10.8c-12,7.2-23.2,14.8-33.7,22.1c-10.4,7.6-20.1,14.8-28.9,21.9c-8.7,7.2-16.6,13.8-23.4,20
	c-6.8,6.2-12.7,11.7-17.3,16.4C14.4,245.1,9.4,250.9,9.4,250.9"/>
</svg>
