<?xml version="1.0" encoding="utf-8"?>
<!-- Generator: Adobe Illustrator 16.0.0, SVG Export Plug-In . SVG Version: 6.00 Build 0)  -->
<!DOCTYPE svg PUBLIC "-//W3C//DTD SVG 1.1//EN" "http://www.w3.org/Graphics/SVG/1.1/DTD/svg11.dtd">
<svg version="1.1" id="Livello_1" xmlns="http://www.w3.org/2000/svg" xmlns:xlink="http://www.w3.org/1999/xlink" x="0px" y="0px"
	 width="40px" height="40px" viewBox="400.945 218.11 40 40" enable-background="new 400.945 218.11 40 40" xml:space="preserve">
<g>
	<defs>
		<rect id="SVGID_1_" x="400.945" y="218.11" width="40" height="40"/>
	</defs>
	<clipPath id="SVGID_2_">
		<use xlink:href="#SVGID_1_"  overflow="visible"/>
	</clipPath>
	<path clip-path="url(#SVGID_2_)" fill="#FFFFFF" d="M436.511,218.11h-31.133c-2.449,0-4.434,1.983-4.434,4.434v31.133
		c0,2.449,1.983,4.434,4.434,4.434h31.133c2.448,0,4.434-1.983,4.434-4.434v-31.133C440.945,220.095,438.962,218.11,436.511,218.11z
		 M423.161,249.221h-11.098c-1.232,0-2.229-0.995-2.229-2.222c0-1.236,0.998-2.222,2.229-2.222h11.098
		c1.231,0,2.229,0.995,2.229,2.222C425.389,248.235,424.391,249.221,423.161,249.221z M429.844,240.333h-17.798
		c-1.214,0-2.212-0.995-2.212-2.222c0-1.236,0.991-2.222,2.212-2.222h17.798c1.214,0,2.212,0.995,2.212,2.222
		C432.056,239.346,431.066,240.333,429.844,240.333z M429.844,231.444h-17.798c-1.214,0-2.212-0.995-2.212-2.223
		c0-1.236,0.991-2.222,2.212-2.222h17.798c1.214,0,2.212,0.995,2.212,2.222C432.056,230.458,431.066,231.444,429.844,231.444z"/>
</g>
</svg>
